<?xml version="1.0" encoding="utf-8"?>
<!-- Generator: Adobe Illustrator 24.3.0, SVG Export Plug-In . SVG Version: 6.00 Build 0)  -->
<svg version="1.1" xmlns="http://www.w3.org/2000/svg" xmlns:xlink="http://www.w3.org/1999/xlink" x="0px" y="0px"
	 viewBox="0 0 750 500" style="enable-background:new 0 0 750 500;" xml:space="preserve">
<style type="text/css">
	.st0{fill-rule:evenodd;clip-rule:evenodd;fill:#DFE8FF;}
	.st1{fill:none;}
	.st2{fill:#CCCED4;}
	.st3{fill-rule:evenodd;clip-rule:evenodd;fill:#D2D4D9;}
	.st4{fill:#333B52;}
	.st5{fill:#51596C;}
	.st6{fill:#FFFFFF;}
	.st7{fill:#D14653;}
	.st8{fill:#A3A7B1;}
	.st9{fill:#BED0FF;}
	.st10{fill:#CACCD2;}
	.st11{fill:none;stroke:#FFFFFF;stroke-width:8;stroke-miterlimit:10;}
	.st12{fill:#3D455A;}
	.st13{fill:#5C6274;}
	.st14{fill-rule:evenodd;clip-rule:evenodd;fill:#ECC32E;}
	.st15{fill-rule:evenodd;clip-rule:evenodd;fill:#E79DA4;}
	.st16{fill:#ECC32E;}
	.st17{fill:#97999B;}
	.st18{fill:#BABCBE;}
	.st19{fill:#717274;}
	.st20{fill:#141517;}
	.st21{fill:#808083;}
	.st22{fill:#3B3D3F;}
	.st23{fill:#CFD1D2;}
	.st24{fill:#E5E5E6;}
	.st25{fill:#8D8F92;}
	.st26{fill:#5B5B5D;}
	.st27{fill:#9B7B53;}
	.st28{fill:#665135;}
	.st29{fill:#7D6342;}
	.st30{fill:#616264;}
	.st31{fill:#A5A6A9;}
	.st32{fill:#1E1F21;}
	.st33{fill:#2A2C2E;}
	.st34{fill:#0B0C0E;}
	.st35{fill:#3D3F42;}
	.st36{fill:#6EBDCF;}
	.st37{fill:none;stroke:#A5A6A9;stroke-width:2.0496;stroke-linejoin:round;stroke-miterlimit:10;}
	.st38{fill:#97CEDF;}
	.st39{fill:#436E78;}
	.st40{fill:#E7AD4B;}
	.st41{fill:none;stroke:#A5A6A9;stroke-width:0.7144;stroke-linejoin:round;stroke-miterlimit:10;}
</style>
<g id="BACKGROUND">
</g>
<g id="OBJECTS">
	<g>
		<g>
			<path class="st0" d="M65.8,347.6c0,0-23.2-122.5,9.1-177.9c32.3-55.4,69.5-61.2,97.7-59.6c18.8,1.1,35.6,2.2,50.7-6.6
				c5.1-2.9,9.9-7,14.6-12.5c12.4-14.5,27.1-30.8,46.8-43.4s44.3-21.5,76.6-21.1c77.8,1,101.8,38.1,119.2,86.9s91,48.8,121.7,46.3
				c30.6-2.5,74.5,15.7,86.9,48.8c12.4,33.1,1.7,139,1.7,139S65,346.8,65.8,347.6z"/>
			<g>
				<path class="st1" d="M442.4,299.3v48c7.4,0,14.8,0,22.1,0v-48H442.4z"/>
				<path class="st2" d="M469.9,196.7v-50.8H462v-17.5h-10.5v-21h-4v21H437v17.5h-7.4v54.7h-30.3v5.5h-41.9v54.6h-31.2v-42.2h-46.1
					v22.3H247v-79.4h-30.9v-28.1h-40.8v106.5h-31.4v-51h-43v70.9H73.2v87.9c38-0.3,214.5-0.2,369.1-0.1v-48h22.1v48
					c13.7,0,27.2,0,40.3,0V196.7H469.9z"/>
				<path class="st2" d="M657,253v-42.5h-40.3v137c34.3,0,59.1,0.1,69.1,0.1V253H657z"/>
			</g>
		</g>
		<ellipse class="st3" cx="471.4" cy="412.4" rx="194.1" ry="12"/>
		<g>
			<g>
				<path class="st4" d="M620.7,410.9H494.5c-6.6,0-12-5.4-12-12V87.3c0-6.6,5.4-12,12-12l127.3,0.2c6.6,0,17.8,5,18,17.8v299.6
					C639.7,399.6,634.1,410.9,620.7,410.9z"/>
				<path class="st5" d="M620.7,410.9H487.5c-6.6,0-12-5.4-12-12V87.3c0-6.6,5.4-12,12-12h133.2c6.6,0,12,5.4,12,12v311.6
					C632.7,405.6,627.3,410.9,620.7,410.9z"/>
				<path class="st6" d="M487.5,404.9c-3.3,0-6-2.7-6-6V87.3c0-3.3,2.7-6,6-6h133.2c3.3,0,6,2.7,6,6v311.6c0,3.3-2.7,6-6,6H487.5z"
					/>
				<g>
					<path class="st4" d="M638.6,144.9H636v-23.6h2.6c1.1,0,2,0.9,2,2v19.6C640.6,144,639.7,144.9,638.6,144.9z"/>
					<rect x="636" y="121.3" class="st5" width="2.3" height="23.6"/>
				</g>
				<g>
					<path class="st4" d="M638.2,200.1H636v-31.8h2.2c1.3,0,2.3,1,2.3,2.3v27.2C640.6,199.1,639.5,200.1,638.2,200.1z"/>
					<rect x="636" y="168.3" class="st5" width="2.3" height="31.8"/>
				</g>
				<path class="st5" d="M565.4,93h-30.7c-3.9,0-7-3.1-7-7v-8.2h44.7V86C572.4,89.9,569.3,93,565.4,93z"/>
				<g>
					<path class="st4" d="M546.6,84.9c0,2.3-1.9,4.1-4.1,4.1c-2.3,0-4.1-1.9-4.1-4.1c0-2.3,1.9-4.1,4.1-4.1
						C544.8,80.8,546.6,82.6,546.6,84.9z"/>
					<path class="st4" d="M561.8,84.9c0,1.4-1.2,2.6-2.6,2.6c-1.4,0-2.6-1.2-2.6-2.6c0-1.4,1.2-2.6,2.6-2.6
						C560.6,82.3,561.8,83.5,561.8,84.9z"/>
				</g>
			</g>
			<g>
				<path class="st7" d="M517,108.1c-0.1,9.1-9.3,15.5-9.3,15.5s-9.2-6.4-9.1-15.6c0-5,4.2-9.1,9.3-9.1
					C512.9,99,517,103.1,517,108.1z"/>
				<path class="st6" d="M512.9,108.1c0,2.8-2.3,5.1-5.2,5.1c-2.8,0-5.1-2.3-5.1-5.1c0-2.8,2.3-5.1,5.2-5.1
					C510.7,103,513,105.3,512.9,108.1z"/>
			</g>
			<rect x="522.1" y="110.2" class="st8" width="63.4" height="6.3"/>
			<rect x="495.4" y="129.6" class="st8" width="111.4" height="12"/>
			<rect x="495.4" y="156.4" class="st9" width="111.4" height="231.7"/>
			<rect x="495.4" y="156.4" class="st10" width="111.4" height="231.7"/>
			<line class="st11" x1="542.9" y1="152.7" x2="610.8" y2="228"/>
			<line class="st11" x1="595.5" y1="210.2" x2="554.9" y2="262.8"/>
			<line class="st11" x1="558.6" y1="171.3" x2="490.4" y2="214"/>
			<line class="st11" x1="533.4" y1="188.3" x2="564.8" y2="246.7"/>
		</g>
		<ellipse class="st3" cx="188.5" cy="414.4" rx="70.6" ry="8"/>
		<g>
			<g>
				<g>
					<path class="st4" d="M126.2,296.7l-3-0.4c0.4-3.5,3.1-10.2,10.1-10.1c6.9,0.1,9.4,6.7,9.8,10.1l-3,0.3c0-0.3-0.9-7.3-6.9-7.4
						C127.2,289.1,126.2,296.4,126.2,296.7z"/>
				</g>
				<path class="st12" d="M110.7,316.8c0,0-0.6,9.9,0.8,10.5c2,0.8,41.2,0.7,41.2,0.7l1.2-12.3L110.7,316.8z"/>
				<path class="st13" d="M156.5,297c0,0,0.5-2.5-9.3-2.3c-10.6,0.2-33.7,0.2-34.8,0.6c-1.2,0.5-2.5,1.3-2.4,5.2
					c0.1,3.9-0.1,16.9-0.1,16.9l45.2,0.7L156.5,297z"/>
				<path class="st4" d="M152.7,328c0,0,1.9-1.1,2.4-1.7c1-0.9,1.1-1.7,1.1-2.3c0.2-4.4,1-19.8,1-23.3c0-4-1.6-5.9-3.1-4.1
					c-1.6,1.9-1.6,12.4-1.6,17.1C152.6,319.4,152.7,328,152.7,328z"/>
				<rect x="128.8" y="316.3" class="st14" width="5.4" height="3"/>
			</g>
			<g>
				<path class="st15" d="M137.6,291.2c-0.4-0.4-0.7-0.7-1.1-1.1c-0.3-0.4-0.6-0.9-0.6-1.4c0-0.9,0.7-1.5,1.5-1.3
					c0.1,0,0.2,0.1,0.4,0.1c0.4,0.2,0.7,0.4,1,0.7c0.5,0.5,1,1,1.4,1.5c0.6-0.7,1-1.6,1-2.5c0-1.4-0.4-2.9-1.1-4.1
					c-0.6-1.1-1.5-2.2-1.3-3.5c0.1-0.4,0.3-0.8,0.1-1.2c-0.2-0.3-0.5-0.4-0.9-0.5c-2.3-0.6-6.8-0.8-8.6,1.1c-1,1-1.4,3.3-1.8,4.6
					c-0.5,1.7-0.8,3.5-0.9,5.3c-0.1,0.6-0.1,1.3,0.2,1.9c0.3,0.7,1,1.1,1.7,1.5c1.4,0.7,2.9,1,4.3,1.2c0.9,0.1,1.9,0.3,2.8,0
					c0.9-0.3,1.6-1,2.3-1.6C137.9,291.6,137.8,291.4,137.6,291.2z"/>
				<path class="st5" d="M198.2,400.8c0,0-2.2,10.5-0.1,12.3c2.1,1.8,25.2,1,27.7,0.4c3.9-1,3.1-4.8,1.7-4.7
					c-1.4,0.1-9.1-1.7-14.2-3.9c-5.1-2.2-5.2-3.7-5.2-3.7L198.2,400.8z"/>
				<path class="st5" d="M156.5,400c0,0-3.1,10.3-1.2,12.2c1.9,2,25,3.4,27.5,2.9c4-0.7,3.4-4.5,2.1-4.5c-1.4,0-8.9-2.5-13.8-5.1
					c-4.9-2.7-4.8-4.2-4.8-4.2L156.5,400z"/>
				<path class="st4" d="M204,281.3c0,0,4.1,45.5,4.4,70.3c0.2,17.9,0.6,50.2,0.6,50.2h-11.9c0,0-4.4-45-7.2-71.4
					c-2.4-23.1-5.4-30.9-5.4-30.9s-10.3,64.9-12.5,78.9c-2.2,14.1-4.4,23.4-4.4,23.4h-12.4c0,0,3.9-50.2,5-72
					c1.1-21.8,1.7-51.9,1.7-51.9L204,281.3z"/>
				<path class="st15" d="M191.6,191.5l-0.4,16c0,0-3.2,2.2-8.1,1c-5-1.2-9.5-6.1-9.5-6.1s2.2-8,3.2-10.8c1-2.8,1.8-6.5,1.8-6.5
					L191.6,191.5z"/>
				<path class="st15" d="M196,168.3c2.6,6.7,5.1,19.4-0.6,23.7c-5.7,4.3-15.2,0.6-18.2-4.7c-3-5.2-3.9-13.8-3.6-17.4
					c0.3-3.6,1.9-5.7,2.6-6.3C179.6,160.5,192,158.1,196,168.3z"/>
				<path class="st15" d="M176.4,177.5c0,0-4.3-3.3-5.7-0.4c-1.4,2.9-0.1,5.4,2.1,5.8c2.2,0.4,4.1-2.9,4.1-2.9L176.4,177.5z"/>
				<path class="st15" d="M238,198.7c0.1-0.3,0.1-0.5,0.3-0.7c0.2-0.2,0.6-0.1,0.9-0.1c2.9,0.6,5.7,1.6,8.2,3.2
					c0.3,0.2,0.6,0.4,0.8,0.8c0.2,0.4,0,0.8-0.2,1.2c-1.8,4.2-5.7,7.2-7.6,11.4c-0.1,0.3-3.9-1.7-4.3-1.9c-1.8-1.1-2.1-1.4-1.4-3.4
					C236.1,205.8,237.2,202.3,238,198.7z"/>
				<path class="st4" d="M175.1,179.8c-0.2,0,1.1-2.8,2-6.2c0.8-3.4,0.6-7.3,0.6-7.3s5,1.2,12.6,1.4c7,0.1,9.3-1.1,10.6-3.8
					c2-4.2-3.4-6.7-3.4-6.7s1.4,3.6-0.6,3.7c-2.1,0.1-4-4.4-10.1-4.2c-6.1,0.3-8.2,5.2-8.2,5.2s-3.9-4-6.8,0.7
					C167.5,169.4,175.1,179.8,175.1,179.8z"/>
				<g>
					<path class="st4" d="M246.2,202.8l-10.7-5.2c-0.6-0.3-0.8-0.9-0.5-1.5l9.2-19.1c0.3-0.6,0.9-0.8,1.5-0.5l10.7,5.2
						c0.6,0.3,0.8,0.9,0.5,1.5l-9.2,19.1C247.4,202.8,246.8,203,246.2,202.8z"/>
					
						<rect x="235.8" y="184.2" transform="matrix(-0.4344 0.9007 -0.9007 -0.4344 523.5823 50.4963)" class="st16" width="20.2" height="10.9"/>
					<path class="st6" d="M251.5,188.7c-1.1,2.3-3.9,3.3-6.2,2.2c-2.3-1.1-3.3-3.9-2.2-6.2c1.1-2.3,3.9-3.3,6.2-2.2
						C251.7,183.6,252.6,186.4,251.5,188.7z"/>
					<g>
						<path class="st7" d="M250,187c-1.1,2.2-4.1,2.8-4.1,2.8s-1.5-2.7-0.4-5c0.6-1.3,2.1-1.8,3.4-1.2
							C250.1,184.2,250.6,185.7,250,187z"/>
						<path class="st6" d="M249,186.5c-0.3,0.7-1.2,1-1.9,0.7c-0.7-0.3-1-1.2-0.7-1.9c0.3-0.7,1.2-1,1.9-0.7
							C249.1,185,249.4,185.8,249,186.5z"/>
					</g>
				</g>
				<path class="st15" d="M245,208.8c1.9-1.5,4-2.7,5.9-4.2c1.4-1.1,2.8-2.5,3.4-4.2c0.7-2.2,0-4.5-0.7-6.7
					c-0.1-0.4-0.3-0.8-0.5-1.1c-0.3-0.3-0.7-0.5-1.2-0.6c-1.4-0.3-3,0.1-4.1,1c-1.4,1.2-2.4,3.2-2.6,5c0,0.6-0.1,1.1,0,1.7
					c0.2,0.9,0.4,1.8,0.4,2.7c0,1.8-1.6,3.2-2.3,4.9c-0.6,1.3-0.7,2.7-1.3,3.9c-0.4,0.8-1.6,1.9-1.6,2.8c0.6-0.9,1.1-1.9,1.9-2.8
					C243.3,210.3,244.1,209.5,245,208.8z"/>
				<path class="st14" d="M234.1,209.2c0,0-11.4,19.7-13.5,19c-2.1-0.7-13.2-19.3-17-21.9c-3.7-2.6-12.1-2.3-12.1-2.3
					s-0.3,3.3-6.1,3.4c-5.8,0.1-11.7-7-11.7-7s-7.7,1-14.9,5.1c-7.2,4.1-17.4,15.7-23.7,33c-6.3,17.2-8.3,42.1-8.3,42.1l14.1,1
					c0,0,1.8-13.2,5-24.1c3.1-10.5,8.6-25.4,14.6-31.2c0.1,3.2,0.2,7,0.2,10.1c0,7-1.5,46.4-1.5,46.4s10.8,1.4,23.4,1.4
					c13.7,0,22.8-1,22.8-1s-0.6-13-0.6-23c0-6.2,0-18.4-0.8-28.1c2.6,4.3,11.4,18.2,17.7,17.4c7.4-1,22.6-35,22.6-35L234.1,209.2z"
					/>
			</g>
		</g>
		<g>
			<polygon class="st16" points="363.4,277.6 360.3,241 364.3,240.7 366.8,270.3 454.6,209.1 490.1,239.6 588.3,196 589.9,199.7 
				489.5,244.3 454.4,214.1 			"/>
		</g>
		<g>
			<path class="st7" d="M423.6,139.5c-0.4,61.1-61.8,104.7-61.8,104.7s-60.9-43.2-60.5-105.4c0.2-34.1,27.8-61.5,61.5-61.3
				C396.6,77.6,423.8,105.4,423.6,139.5z"/>
			
				<ellipse transform="matrix(6.059295e-03 -1 1 6.059295e-03 221.1285 500.6613)" class="st6" cx="362.4" cy="139.1" rx="34.4" ry="34.2"/>
		</g>
		<g>
			<path class="st7" d="M596.1,188.3c0,7.1-7.3,12.1-7.3,12.1s-7.2-5-7.2-12.2c0-3.9,3.3-7.1,7.3-7.1
				C592.9,181.2,596.1,184.4,596.1,188.3z"/>
			<path class="st6" d="M592.9,188.3c0,2.2-1.8,4-4.1,4c-2.2,0-4-1.8-4-4c0-2.2,1.8-4,4.1-4C591.1,184.3,592.9,186.1,592.9,188.3z"
				/>
		</g>
		<path class="st17" d="M272.7,429.6l-6.9,5.2c0,0-11.2,7.5,2.8,12.4l67.6,23.1c0,0,37.1,7.9,61.4-8.6l210.2-121.4
			c0,0,11.8-6-1.5-8.6l-10.3-0.1v-27.4L272.7,429.6z"/>
		<polygon class="st18" points="522.3,253.4 332.7,341.9 332.9,385.1 522.3,301.3 		"/>
		<polygon class="st19" points="522.3,292.3 332.7,383.6 450.2,429 628,321.1 		"/>
		<path class="st20" d="M486,425l-13.3-3.5c0,0-2.4-1.2-3.1-3.4c-1.8-7.7-3.1-11.6,0.1-19.7c4.8-12.1,15.2-19.4,23.1-16.2
			c8,3.2,10.5,15.6,5.7,27.7C495.6,417.4,491.4,422.6,486,425"/>
		<path class="st20" d="M556.2,383.3l-13.3-3.5c0,0-2.4-1.2-3.1-3.4c-1.8-7.7-3.1-11.6,0.1-19.7c4.8-12.1,15.2-19.4,23.1-16.2
			c8,3.2,10.5,15.6,5.7,27.7C565.8,375.7,561.6,380.8,556.2,383.3"/>
		<path class="st20" d="M595.6,359.3l-13.3-3.5c0,0-2.4-1.2-3.1-3.4c-1.8-7.6-3.1-11.6,0.1-19.7c4.8-12.1,15.2-19.4,23.1-16.2
			c8,3.2,10.5,15.6,5.7,27.7C605.1,351.6,601,356.8,595.6,359.3"/>
		<polygon class="st21" points="332.7,341.9 332.7,385.3 450.5,429.5 450.2,387.2 		"/>
		<polygon class="st18" points="601,299.3 436.3,393.6 436.5,432.9 601,332.8 		"/>
		<path class="st20" d="M582.8,350.3c0,0-4.8-26.5,15.8-37.4c0,0,19.6-12.9,23.1,13.3L582.8,350.3z"/>
		<path class="st22" d="M617.5,342.7c-4.8,12.1-15.2,19.4-23.1,16.2c-8-3.2-10.5-15.6-5.7-27.7c4.8-12.1,15.2-19.4,23.1-16.2
			C619.8,318.1,622.3,330.5,617.5,342.7z"/>
		<g>
			<path class="st20" d="M610.6,340.5c-2.5,6.3-7.9,10.1-12.1,8.5c-4.2-1.7-5.5-8.1-3-14.5c2.5-6.3,7.9-10.1,12.1-8.5
				C611.8,327.7,613.1,334.1,610.6,340.5z"/>
			<path class="st23" d="M610.2,339.1c-2.2,5.6-7,9-10.7,7.5c-3.7-1.5-4.8-7.2-2.6-12.8c2.2-5.6,7-9,10.7-7.5
				C611.2,327.8,612.4,333.5,610.2,339.1z"/>
			<path class="st23" d="M610.2,339.1c-2.2,5.6-7,9-10.7,7.5c-3.7-1.5-4.8-7.2-2.6-12.8c2.2-5.6,7-9,10.7-7.5
				C611.2,327.8,612.4,333.5,610.2,339.1z"/>
			<path class="st21" d="M607.8,337.9c-1.5,3.7-4.6,6-6.9,5.1c-2.3-0.9-2.9-4.7-1.5-8.4c1.5-3.7,4.6-6,6.9-5.1
				C608.6,330.4,609.3,334.1,607.8,337.9z"/>
			<g>
				<path class="st23" d="M604.3,328c0,0.4-0.3,0.8-0.8,0.8c-0.4,0-0.8-0.3-0.8-0.8c0-0.4,0.3-0.8,0.8-0.8
					C603.9,327.2,604.3,327.5,604.3,328z"/>
				<path class="st6" d="M603.6,328c0.1,0.1,0.3,0.2,0.5,0.1c0-0.1,0.1-0.2,0.1-0.2c0-0.3-0.2-0.6-0.6-0.6
					C603.4,327.5,603.4,327.8,603.6,328z"/>
				<path class="st18" d="M603.5,328.2c-0.2-0.3-0.2-0.7-0.1-1c-0.4,0-0.7,0.4-0.7,0.8c0,0.4,0.3,0.8,0.8,0.8c0.3,0,0.5-0.1,0.6-0.3
					C603.9,328.4,603.7,328.4,603.5,328.2z"/>
			</g>
			<g>
				<path class="st23" d="M607.9,327.7c0,0.4-0.3,0.8-0.8,0.8c-0.4,0-0.8-0.3-0.8-0.8c0-0.4,0.3-0.8,0.8-0.8
					C607.5,326.9,607.9,327.3,607.9,327.7z"/>
				<path class="st6" d="M607.2,327.7c0.1,0.1,0.3,0.2,0.5,0.1c0-0.1,0.1-0.2,0.1-0.2c0-0.3-0.2-0.6-0.6-0.6
					C607.1,327.2,607,327.5,607.2,327.7z"/>
				<path class="st18" d="M607.1,327.9c-0.2-0.3-0.2-0.7-0.1-1c-0.4,0-0.7,0.4-0.7,0.8c0,0.4,0.3,0.8,0.8,0.8c0.3,0,0.5-0.1,0.6-0.3
					C607.5,328.2,607.3,328.1,607.1,327.9z"/>
			</g>
			<g>
				<path class="st23" d="M610.3,330.6c0,0.4-0.3,0.8-0.8,0.8c-0.4,0-0.8-0.3-0.8-0.8s0.3-0.8,0.8-0.8
					C610,329.9,610.3,330.2,610.3,330.6z"/>
				<path class="st6" d="M609.7,330.7c0.1,0.1,0.3,0.2,0.5,0.1c0-0.1,0.1-0.2,0.1-0.2c0-0.3-0.2-0.6-0.6-0.6
					C609.5,330.2,609.5,330.5,609.7,330.7z"/>
				<path class="st18" d="M609.5,330.9c-0.2-0.3-0.2-0.7-0.1-1c-0.4,0-0.7,0.4-0.7,0.8c0,0.4,0.3,0.8,0.8,0.8c0.3,0,0.5-0.1,0.6-0.3
					C609.9,331.1,609.7,331.1,609.5,330.9z"/>
			</g>
			<g>
				<path class="st23" d="M610.7,335.1c0,0.4-0.3,0.8-0.8,0.8c-0.4,0-0.8-0.3-0.8-0.8c0-0.4,0.3-0.8,0.8-0.8
					C610.4,334.3,610.7,334.7,610.7,335.1z"/>
				<path class="st6" d="M610.1,335.1c0.1,0.1,0.3,0.2,0.5,0.1c0-0.1,0.1-0.2,0.1-0.2c0-0.3-0.2-0.6-0.6-0.6
					C609.9,334.6,609.9,335,610.1,335.1z"/>
				<path class="st18" d="M609.9,335.3c-0.2-0.3-0.2-0.7-0.1-1c-0.4,0-0.7,0.4-0.7,0.8c0,0.4,0.3,0.8,0.8,0.8c0.3,0,0.5-0.1,0.6-0.3
					C610.3,335.6,610.1,335.5,609.9,335.3z"/>
			</g>
			<g>
				<path class="st23" d="M609.5,338.7c0,0.4-0.3,0.8-0.8,0.8c-0.4,0-0.8-0.3-0.8-0.8c0-0.4,0.3-0.8,0.8-0.8
					C609.2,338,609.5,338.3,609.5,338.7z"/>
				<path class="st6" d="M608.9,338.8c0.1,0.1,0.3,0.2,0.5,0.1c0-0.1,0.1-0.2,0.1-0.2c0-0.3-0.2-0.6-0.6-0.6
					C608.7,338.3,608.7,338.6,608.9,338.8z"/>
				<path class="st18" d="M608.7,338.9c-0.2-0.3-0.2-0.7-0.1-1c-0.4,0-0.7,0.4-0.7,0.8c0,0.4,0.3,0.8,0.8,0.8c0.3,0,0.5-0.1,0.6-0.3
					C609.2,339.2,608.9,339.2,608.7,338.9z"/>
			</g>
			<g>
				<path class="st23" d="M607.6,342.2c0,0.4-0.3,0.8-0.8,0.8c-0.4,0-0.8-0.3-0.8-0.8c0-0.4,0.3-0.8,0.8-0.8
					C607.3,341.4,607.6,341.8,607.6,342.2z"/>
				<path class="st6" d="M607,342.2c0.1,0.1,0.3,0.2,0.5,0.1c0-0.1,0.1-0.2,0.1-0.2c0-0.3-0.2-0.6-0.6-0.6
					C606.8,341.7,606.8,342,607,342.2z"/>
				<path class="st18" d="M606.8,342.4c-0.2-0.3-0.2-0.7-0.1-1c-0.4,0-0.7,0.4-0.7,0.8c0,0.4,0.3,0.8,0.8,0.8c0.3,0,0.5-0.1,0.6-0.3
					C607.3,342.7,607,342.6,606.8,342.4z"/>
			</g>
			<g>
				<path class="st23" d="M604.3,344.7c0,0.4-0.3,0.8-0.8,0.8c-0.4,0-0.8-0.3-0.8-0.8c0-0.4,0.3-0.8,0.8-0.8
					C603.9,343.9,604.3,344.2,604.3,344.7z"/>
				<path class="st6" d="M603.6,344.7c0.1,0.1,0.3,0.2,0.5,0.1c0-0.1,0.1-0.2,0.1-0.2c0-0.3-0.2-0.6-0.6-0.6
					C603.4,344.2,603.4,344.5,603.6,344.7z"/>
				<path class="st18" d="M603.5,344.9c-0.2-0.3-0.2-0.7-0.1-1c-0.4,0-0.7,0.4-0.7,0.8c0,0.4,0.3,0.8,0.8,0.8c0.3,0,0.5-0.1,0.6-0.3
					C603.9,345.2,603.7,345.1,603.5,344.9z"/>
			</g>
			<g>
				<path class="st23" d="M600.8,344.9c0,0.4-0.3,0.8-0.8,0.8c-0.4,0-0.8-0.3-0.8-0.8c0-0.4,0.3-0.8,0.8-0.8
					C600.5,344.2,600.8,344.5,600.8,344.9z"/>
				<path class="st6" d="M600.2,345c0.1,0.1,0.3,0.2,0.5,0.1c0-0.1,0.1-0.2,0.1-0.2c0-0.3-0.2-0.6-0.6-0.6
					C600,344.5,600,344.8,600.2,345z"/>
				<path class="st18" d="M600,345.1c-0.2-0.3-0.2-0.7-0.1-1c-0.4,0-0.7,0.4-0.7,0.8c0,0.4,0.3,0.8,0.8,0.8c0.3,0,0.5-0.1,0.6-0.3
					C600.5,345.4,600.2,345.3,600,345.1z"/>
			</g>
			<g>
				<path class="st23" d="M598.4,342.4c0,0.4-0.3,0.8-0.8,0.8c-0.4,0-0.8-0.3-0.8-0.8c0-0.4,0.3-0.8,0.8-0.8
					C598,341.7,598.4,342,598.4,342.4z"/>
				<path class="st6" d="M597.7,342.5c0.1,0.1,0.3,0.2,0.5,0.1c0-0.1,0.1-0.2,0.1-0.2c0-0.3-0.2-0.6-0.6-0.6
					C597.6,342,597.5,342.3,597.7,342.5z"/>
				<path class="st18" d="M597.6,342.7c-0.2-0.3-0.2-0.7-0.1-1c-0.4,0-0.7,0.4-0.7,0.8c0,0.4,0.3,0.8,0.8,0.8c0.3,0,0.5-0.1,0.6-0.3
					C598,342.9,597.8,342.9,597.6,342.7z"/>
			</g>
			<g>
				<path class="st23" d="M597.7,338.3c0,0.4-0.3,0.8-0.8,0.8c-0.4,0-0.8-0.3-0.8-0.8c0-0.4,0.3-0.8,0.8-0.8
					C597.4,337.5,597.7,337.9,597.7,338.3z"/>
				<path class="st6" d="M597.1,338.3c0.1,0.1,0.3,0.2,0.5,0.1c0-0.1,0.1-0.2,0.1-0.2c0-0.3-0.2-0.6-0.6-0.6
					C596.9,337.8,596.9,338.1,597.1,338.3z"/>
				<path class="st18" d="M596.9,338.5c-0.2-0.3-0.2-0.7-0.1-1c-0.4,0-0.7,0.4-0.7,0.8c0,0.4,0.3,0.8,0.8,0.8c0.3,0,0.5-0.1,0.6-0.3
					C597.4,338.8,597.1,338.7,596.9,338.5z"/>
			</g>
			<g>
				<path class="st23" d="M598.8,334.2c0,0.4-0.3,0.8-0.8,0.8c-0.4,0-0.8-0.3-0.8-0.8c0-0.4,0.3-0.8,0.8-0.8
					C598.5,333.4,598.8,333.8,598.8,334.2z"/>
				<path class="st6" d="M598.2,334.2c0.1,0.1,0.3,0.2,0.5,0.1c0-0.1,0.1-0.2,0.1-0.2c0-0.3-0.2-0.6-0.6-0.6
					C598,333.7,598,334,598.2,334.2z"/>
				<path class="st18" d="M598,334.4c-0.2-0.3-0.2-0.7-0.1-1c-0.4,0-0.7,0.4-0.7,0.8c0,0.4,0.3,0.8,0.8,0.8c0.3,0,0.5-0.1,0.6-0.3
					C598.5,334.7,598.2,334.6,598,334.4z"/>
			</g>
			<g>
				<path class="st23" d="M600.9,330.5c0,0.4-0.3,0.8-0.8,0.8c-0.4,0-0.8-0.3-0.8-0.8c0-0.4,0.3-0.8,0.8-0.8
					C600.6,329.7,600.9,330.1,600.9,330.5z"/>
				<path class="st6" d="M600.3,330.5c0.1,0.1,0.3,0.2,0.5,0.1c0-0.1,0.1-0.2,0.1-0.2c0-0.3-0.2-0.6-0.6-0.6
					C600.1,330,600.1,330.3,600.3,330.5z"/>
				<path class="st18" d="M600.1,330.7c-0.2-0.3-0.2-0.7-0.1-1c-0.4,0-0.7,0.4-0.7,0.8c0,0.4,0.3,0.8,0.8,0.8c0.3,0,0.5-0.1,0.6-0.3
					C600.5,331,600.3,330.9,600.1,330.7z"/>
			</g>
			<path class="st24" d="M606.6,337.4c-1.1,2.7-3.3,4.3-4.9,3.7c-1.6-0.7-2.1-3.4-1-6c1.1-2.7,3.3-4.3,4.9-3.7
				C607.2,332,607.7,334.7,606.6,337.4z"/>
		</g>
		<path class="st20" d="M473.2,416.1c0,0-4.8-26.5,15.8-37.4c0,0,19.6-12.9,23.1,13.3L473.2,416.1z"/>
		<path class="st22" d="M507.9,408.4c-4.8,12.1-15.2,19.4-23.1,16.2c-8-3.2-10.5-15.6-5.7-27.7c4.8-12.1,15.2-19.4,23.1-16.2
			C510.2,383.9,512.7,396.3,507.9,408.4z"/>
		<g>
			<path class="st20" d="M501,406.3c-2.5,6.3-7.9,10.1-12.1,8.5c-4.2-1.7-5.5-8.1-3-14.5c2.5-6.3,7.9-10.1,12.1-8.5
				C502.2,393.4,503.6,399.9,501,406.3z"/>
			<path class="st23" d="M500.6,404.9c-2.2,5.6-7,9-10.7,7.5c-3.7-1.5-4.9-7.2-2.6-12.8c2.2-5.6,7-9,10.7-7.5
				C501.6,393.5,502.8,399.3,500.6,404.9z"/>
			<path class="st23" d="M500.6,404.9c-2.2,5.6-7,9-10.7,7.5c-3.7-1.5-4.9-7.2-2.6-12.8c2.2-5.6,7-9,10.7-7.5
				C501.6,393.5,502.8,399.3,500.6,404.9z"/>
			<path class="st21" d="M498.2,403.7c-1.5,3.7-4.6,6-6.9,5.1c-2.3-0.9-2.9-4.7-1.5-8.4c1.5-3.7,4.6-6,6.9-5.1
				C499,396.1,499.7,399.9,498.2,403.7z"/>
			<g>
				<path class="st23" d="M494.7,393.7c0,0.4-0.3,0.8-0.8,0.8c-0.4,0-0.8-0.3-0.8-0.8c0-0.4,0.3-0.8,0.8-0.8
					C494.4,393,494.7,393.3,494.7,393.7z"/>
				<path class="st6" d="M494.1,393.8c0.1,0.1,0.3,0.2,0.5,0.1c0-0.1,0.1-0.2,0.1-0.2c0-0.3-0.2-0.6-0.6-0.6
					C493.9,393.3,493.9,393.6,494.1,393.8z"/>
				<path class="st18" d="M493.9,393.9c-0.2-0.3-0.2-0.7-0.1-1c-0.4,0-0.7,0.4-0.7,0.8c0,0.4,0.3,0.8,0.8,0.8c0.3,0,0.5-0.1,0.6-0.3
					C494.3,394.2,494.1,394.2,493.9,393.9z"/>
			</g>
			<g>
				<path class="st23" d="M498.3,393.5c0,0.4-0.3,0.8-0.8,0.8c-0.4,0-0.8-0.3-0.8-0.8c0-0.4,0.3-0.8,0.8-0.8
					C498,392.7,498.3,393.1,498.3,393.5z"/>
				<path class="st6" d="M497.7,393.5c0.1,0.1,0.3,0.2,0.5,0.1c0-0.1,0.1-0.2,0.1-0.2c0-0.3-0.2-0.6-0.6-0.6
					C497.5,393,497.5,393.3,497.7,393.5z"/>
				<path class="st18" d="M497.5,393.7c-0.2-0.3-0.2-0.7-0.1-1c-0.4,0-0.7,0.4-0.7,0.8c0,0.4,0.3,0.8,0.8,0.8c0.3,0,0.5-0.1,0.6-0.3
					C497.9,394,497.7,393.9,497.5,393.7z"/>
			</g>
			<g>
				<path class="st23" d="M500.7,396.4c0,0.4-0.3,0.8-0.8,0.8c-0.4,0-0.8-0.3-0.8-0.8c0-0.4,0.3-0.8,0.8-0.8
					C500.4,395.7,500.7,396,500.7,396.4z"/>
				<path class="st6" d="M500.1,396.5c0.1,0.1,0.3,0.2,0.5,0.1c0-0.1,0.1-0.2,0.1-0.2c0-0.3-0.2-0.6-0.6-0.6
					C499.9,396,499.9,396.3,500.1,396.5z"/>
				<path class="st18" d="M499.9,396.6c-0.2-0.3-0.2-0.7-0.1-1c-0.4,0-0.7,0.4-0.7,0.8c0,0.4,0.3,0.8,0.8,0.8c0.3,0,0.5-0.1,0.6-0.3
					C500.4,396.9,500.1,396.9,499.9,396.6z"/>
			</g>
			<g>
				<path class="st23" d="M501.1,400.9c0,0.4-0.3,0.8-0.8,0.8c-0.4,0-0.8-0.3-0.8-0.8c0-0.4,0.3-0.8,0.8-0.8
					C500.8,400.1,501.1,400.5,501.1,400.9z"/>
				<path class="st6" d="M500.5,400.9c0.1,0.1,0.3,0.2,0.5,0.1c0-0.1,0.1-0.2,0.1-0.2c0-0.3-0.2-0.6-0.6-0.6
					C500.3,400.4,500.3,400.7,500.5,400.9z"/>
				<path class="st18" d="M500.3,401.1c-0.2-0.3-0.2-0.7-0.1-1c-0.4,0-0.7,0.4-0.7,0.8c0,0.4,0.3,0.8,0.8,0.8c0.3,0,0.5-0.1,0.6-0.3
					C500.8,401.4,500.5,401.3,500.3,401.1z"/>
			</g>
			<g>
				<path class="st23" d="M500,404.5c0,0.4-0.3,0.8-0.8,0.8c-0.4,0-0.8-0.3-0.8-0.8c0-0.4,0.3-0.8,0.8-0.8
					C499.6,403.7,500,404.1,500,404.5z"/>
				<path class="st6" d="M499.3,404.5c0.1,0.1,0.3,0.2,0.5,0.1c0-0.1,0.1-0.2,0.1-0.2c0-0.3-0.2-0.6-0.6-0.6
					C499.1,404,499.1,404.4,499.3,404.5z"/>
				<path class="st18" d="M499.2,404.7c-0.2-0.3-0.2-0.7-0.1-1c-0.4,0-0.7,0.4-0.7,0.8c0,0.4,0.3,0.8,0.8,0.8c0.3,0,0.5-0.1,0.6-0.3
					C499.6,405,499.3,404.9,499.2,404.7z"/>
			</g>
			<g>
				<circle class="st23" cx="497.3" cy="408" r="0.8"/>
				<path class="st6" d="M497.4,408c0.1,0.1,0.3,0.2,0.5,0.1c0-0.1,0.1-0.2,0.1-0.2c0-0.3-0.2-0.6-0.6-0.6
					C497.2,407.5,497.2,407.8,497.4,408z"/>
				<path class="st18" d="M497.3,408.2c-0.2-0.3-0.2-0.7-0.1-1c-0.4,0-0.7,0.4-0.7,0.8c0,0.4,0.3,0.8,0.8,0.8c0.3,0,0.5-0.1,0.6-0.3
					C497.7,408.5,497.4,408.4,497.3,408.2z"/>
			</g>
			<g>
				<path class="st23" d="M494.7,410.4c0,0.4-0.3,0.8-0.8,0.8c-0.4,0-0.8-0.3-0.8-0.8c0-0.4,0.3-0.8,0.8-0.8
					C494.4,409.7,494.7,410,494.7,410.4z"/>
				<path class="st6" d="M494.1,410.5c0.1,0.1,0.3,0.2,0.5,0.1c0-0.1,0.1-0.2,0.1-0.2c0-0.3-0.2-0.6-0.6-0.6
					C493.9,410,493.9,410.3,494.1,410.5z"/>
				<path class="st18" d="M493.9,410.7c-0.2-0.3-0.2-0.7-0.1-1c-0.4,0-0.7,0.4-0.7,0.8c0,0.4,0.3,0.8,0.8,0.8c0.3,0,0.5-0.1,0.6-0.3
					C494.3,410.9,494.1,410.9,493.9,410.7z"/>
			</g>
			<g>
				<path class="st23" d="M491.3,410.7c0,0.4-0.3,0.8-0.8,0.8c-0.4,0-0.8-0.3-0.8-0.8c0-0.4,0.3-0.8,0.8-0.8
					C490.9,409.9,491.3,410.3,491.3,410.7z"/>
				<path class="st6" d="M490.6,410.7c0.1,0.1,0.3,0.2,0.5,0.1c0-0.1,0.1-0.2,0.1-0.2c0-0.3-0.2-0.6-0.6-0.6
					C490.5,410.2,490.4,410.5,490.6,410.7z"/>
				<path class="st18" d="M490.5,410.9c-0.2-0.3-0.2-0.7-0.1-1c-0.4,0-0.7,0.4-0.7,0.8c0,0.4,0.3,0.8,0.8,0.8c0.3,0,0.5-0.1,0.6-0.3
					C490.9,411.2,490.7,411.1,490.5,410.9z"/>
			</g>
			<g>
				<path class="st23" d="M488.8,408.2c0,0.4-0.3,0.8-0.8,0.8c-0.4,0-0.8-0.3-0.8-0.8c0-0.4,0.3-0.8,0.8-0.8
					C488.5,407.5,488.8,407.8,488.8,408.2z"/>
				<path class="st6" d="M488.2,408.3c0.1,0.1,0.3,0.2,0.5,0.1c0-0.1,0.1-0.2,0.1-0.2c0-0.3-0.2-0.6-0.6-0.6
					C488,407.8,488,408.1,488.2,408.3z"/>
				<path class="st18" d="M488,408.4c-0.2-0.3-0.2-0.7-0.1-1c-0.4,0-0.7,0.4-0.7,0.8c0,0.4,0.3,0.8,0.8,0.8c0.3,0,0.5-0.1,0.6-0.3
					C488.4,408.7,488.2,408.7,488,408.4z"/>
			</g>
			<g>
				<path class="st23" d="M488.1,404.1c0,0.4-0.3,0.8-0.8,0.8c-0.4,0-0.8-0.3-0.8-0.8c0-0.4,0.3-0.8,0.8-0.8
					C487.8,403.3,488.1,403.7,488.1,404.1z"/>
				<path class="st6" d="M487.5,404.1c0.1,0.1,0.3,0.2,0.5,0.1c0-0.1,0.1-0.2,0.1-0.2c0-0.3-0.2-0.6-0.6-0.6
					C487.3,403.6,487.3,403.9,487.5,404.1z"/>
				<path class="st18" d="M487.3,404.3c-0.2-0.3-0.2-0.7-0.1-1c-0.4,0-0.7,0.4-0.7,0.8c0,0.4,0.3,0.8,0.8,0.8c0.3,0,0.5-0.1,0.6-0.3
					C487.8,404.6,487.5,404.5,487.3,404.3z"/>
			</g>
			<g>
				<path class="st23" d="M489.2,400c0,0.4-0.3,0.8-0.8,0.8c-0.4,0-0.8-0.3-0.8-0.8c0-0.4,0.3-0.8,0.8-0.8
					C488.9,399.2,489.2,399.5,489.2,400z"/>
				<path class="st6" d="M488.6,400c0.1,0.1,0.3,0.2,0.5,0.1c0-0.1,0.1-0.2,0.1-0.2c0-0.3-0.2-0.6-0.6-0.6
					C488.4,399.5,488.4,399.8,488.6,400z"/>
				<path class="st18" d="M488.4,400.2c-0.2-0.3-0.2-0.7-0.1-1c-0.4,0-0.7,0.4-0.7,0.8c0,0.4,0.3,0.8,0.8,0.8c0.3,0,0.5-0.1,0.6-0.3
					C488.9,400.5,488.6,400.4,488.4,400.2z"/>
			</g>
			<g>
				<path class="st23" d="M491.3,396.3c0,0.4-0.3,0.8-0.8,0.8c-0.4,0-0.8-0.3-0.8-0.8c0-0.4,0.3-0.8,0.8-0.8
					C491,395.5,491.3,395.8,491.3,396.3z"/>
				<path class="st6" d="M490.7,396.3c0.1,0.1,0.3,0.2,0.5,0.1c0-0.1,0.1-0.2,0.1-0.2c0-0.3-0.2-0.6-0.6-0.6
					C490.5,395.8,490.5,396.1,490.7,396.3z"/>
				<path class="st18" d="M490.5,396.5c-0.2-0.3-0.2-0.7-0.1-1c-0.4,0-0.7,0.4-0.7,0.8c0,0.4,0.3,0.8,0.8,0.8c0.3,0,0.5-0.1,0.6-0.3
					C491,396.8,490.7,396.7,490.5,396.5z"/>
			</g>
			<path class="st24" d="M497,403.2c-1.1,2.7-3.3,4.3-4.9,3.7c-1.6-0.7-2.1-3.4-1-6c1.1-2.7,3.3-4.3,4.9-3.7
				C497.6,397.8,498.1,400.5,497,403.2z"/>
		</g>
		<path class="st20" d="M543.4,374.3c0,0-4.8-26.5,15.8-37.4c0,0,19.6-12.9,23.1,13.3L543.4,374.3z"/>
		<path class="st22" d="M578.1,366.7c-4.8,12.1-15.2,19.4-23.1,16.2c-8-3.2-10.5-15.6-5.7-27.7c4.8-12.1,15.2-19.4,23.1-16.2
			C580.4,342.2,582.9,354.6,578.1,366.7z"/>
		<g>
			<path class="st20" d="M571.2,364.5c-2.5,6.3-7.9,10.1-12.1,8.5c-4.2-1.7-5.5-8.1-3-14.5c2.5-6.3,7.9-10.1,12.1-8.5
				C572.4,351.7,573.8,358.2,571.2,364.5z"/>
			<path class="st23" d="M570.8,363.1c-2.2,5.6-7,9-10.7,7.5c-3.7-1.5-4.9-7.2-2.6-12.8c2.2-5.6,7-9,10.7-7.5
				C571.8,351.8,573,357.5,570.8,363.1z"/>
			<path class="st23" d="M570.8,363.1c-2.2,5.6-7,9-10.7,7.5c-3.7-1.5-4.9-7.2-2.6-12.8c2.2-5.6,7-9,10.7-7.5
				C571.8,351.8,573,357.5,570.8,363.1z"/>
			<path class="st21" d="M568.4,361.9c-1.5,3.7-4.6,6-6.9,5.1c-2.3-0.9-2.9-4.7-1.5-8.4c1.5-3.7,4.6-6,6.9-5.1
				C569.2,354.4,569.9,358.2,568.4,361.9z"/>
			<g>
				<path class="st23" d="M564.9,352c0,0.4-0.3,0.8-0.8,0.8c-0.4,0-0.8-0.3-0.8-0.8c0-0.4,0.3-0.8,0.8-0.8
					C564.6,351.2,564.9,351.6,564.9,352z"/>
				<path class="st6" d="M564.3,352c0.1,0.1,0.3,0.2,0.5,0.1c0-0.1,0.1-0.2,0.1-0.2c0-0.3-0.2-0.6-0.6-0.6
					C564.1,351.5,564.1,351.8,564.3,352z"/>
				<path class="st18" d="M564.1,352.2c-0.2-0.3-0.2-0.7-0.1-1c-0.4,0-0.7,0.4-0.7,0.8c0,0.4,0.3,0.8,0.8,0.8c0.3,0,0.5-0.1,0.6-0.3
					C564.5,352.5,564.3,352.4,564.1,352.2z"/>
			</g>
			<g>
				<path class="st23" d="M568.5,351.7c0,0.4-0.3,0.8-0.8,0.8c-0.4,0-0.8-0.3-0.8-0.8c0-0.4,0.3-0.8,0.8-0.8
					C568.2,351,568.5,351.3,568.5,351.7z"/>
				<path class="st6" d="M567.9,351.8c0.1,0.1,0.3,0.2,0.5,0.1c0-0.1,0.1-0.2,0.1-0.2c0-0.3-0.2-0.6-0.6-0.6
					C567.7,351.3,567.7,351.6,567.9,351.8z"/>
				<path class="st18" d="M567.7,351.9c-0.2-0.3-0.2-0.7-0.1-1c-0.4,0-0.7,0.4-0.7,0.8c0,0.4,0.3,0.8,0.8,0.8c0.3,0,0.5-0.1,0.6-0.3
					C568.1,352.2,567.9,352.1,567.7,351.9z"/>
			</g>
			<g>
				<path class="st23" d="M570.9,354.7c0,0.4-0.3,0.8-0.8,0.8c-0.4,0-0.8-0.3-0.8-0.8c0-0.4,0.3-0.8,0.8-0.8
					C570.6,353.9,570.9,354.2,570.9,354.7z"/>
				<path class="st6" d="M570.3,354.7c0.1,0.1,0.3,0.2,0.5,0.1c0-0.1,0.1-0.2,0.1-0.2c0-0.3-0.2-0.6-0.6-0.6
					C570.1,354.2,570.1,354.5,570.3,354.7z"/>
				<path class="st18" d="M570.1,354.9c-0.2-0.3-0.2-0.7-0.1-1c-0.4,0-0.7,0.4-0.7,0.8c0,0.4,0.3,0.8,0.8,0.8c0.3,0,0.5-0.1,0.6-0.3
					C570.6,355.2,570.3,355.1,570.1,354.9z"/>
			</g>
			<g>
				<path class="st23" d="M571.3,359.1c0,0.4-0.3,0.8-0.8,0.8c-0.4,0-0.8-0.3-0.8-0.8s0.3-0.8,0.8-0.8
					C571,358.4,571.3,358.7,571.3,359.1z"/>
				<path class="st6" d="M570.7,359.2c0.1,0.1,0.3,0.2,0.5,0.1c0-0.1,0.1-0.2,0.1-0.2c0-0.3-0.2-0.6-0.6-0.6
					C570.5,358.7,570.5,359,570.7,359.2z"/>
				<path class="st18" d="M570.5,359.3c-0.2-0.3-0.2-0.7-0.1-1c-0.4,0-0.7,0.4-0.7,0.8c0,0.4,0.3,0.8,0.8,0.8c0.3,0,0.5-0.1,0.6-0.3
					C571,359.6,570.7,359.6,570.5,359.3z"/>
			</g>
			<g>
				<path class="st23" d="M570.2,362.7c0,0.4-0.3,0.8-0.8,0.8c-0.4,0-0.8-0.3-0.8-0.8c0-0.4,0.3-0.8,0.8-0.8
					C569.8,362,570.2,362.3,570.2,362.7z"/>
				<path class="st6" d="M569.5,362.8c0.1,0.1,0.3,0.2,0.5,0.1c0-0.1,0.1-0.2,0.1-0.2c0-0.3-0.2-0.6-0.6-0.6
					C569.3,362.3,569.3,362.6,569.5,362.8z"/>
				<path class="st18" d="M569.4,363c-0.2-0.3-0.2-0.7-0.1-1c-0.4,0-0.7,0.4-0.7,0.8c0,0.4,0.3,0.8,0.8,0.8c0.3,0,0.5-0.1,0.6-0.3
					C569.8,363.2,569.5,363.2,569.4,363z"/>
			</g>
			<g>
				<path class="st23" d="M568.3,366.2c0,0.4-0.3,0.8-0.8,0.8s-0.8-0.3-0.8-0.8s0.3-0.8,0.8-0.8
					C567.9,365.4,568.3,365.8,568.3,366.2z"/>
				<path class="st6" d="M567.6,366.2c0.1,0.1,0.3,0.2,0.5,0.1c0-0.1,0.1-0.2,0.1-0.2c0-0.3-0.2-0.6-0.6-0.6
					C567.4,365.7,567.4,366.1,567.6,366.2z"/>
				<path class="st18" d="M567.5,366.4c-0.2-0.3-0.2-0.7-0.1-1c-0.4,0-0.7,0.4-0.7,0.8c0,0.4,0.3,0.8,0.8,0.8c0.3,0,0.5-0.1,0.6-0.3
					C567.9,366.7,567.6,366.6,567.5,366.4z"/>
			</g>
			<g>
				<path class="st23" d="M564.9,368.7c0,0.4-0.3,0.8-0.8,0.8c-0.4,0-0.8-0.3-0.8-0.8c0-0.4,0.3-0.8,0.8-0.8
					C564.6,367.9,564.9,368.3,564.9,368.7z"/>
				<path class="st6" d="M564.3,368.7c0.1,0.1,0.3,0.2,0.5,0.1c0-0.1,0.1-0.2,0.1-0.2c0-0.3-0.2-0.6-0.6-0.6
					C564.1,368.2,564.1,368.5,564.3,368.7z"/>
				<path class="st18" d="M564.1,368.9c-0.2-0.3-0.2-0.7-0.1-1c-0.4,0-0.7,0.4-0.7,0.8c0,0.4,0.3,0.8,0.8,0.8c0.3,0,0.5-0.1,0.6-0.3
					C564.5,369.2,564.3,369.1,564.1,368.9z"/>
			</g>
			<g>
				<path class="st23" d="M561.5,368.9c0,0.4-0.3,0.8-0.8,0.8c-0.4,0-0.8-0.3-0.8-0.8s0.3-0.8,0.8-0.8
					C561.1,368.2,561.5,368.5,561.5,368.9z"/>
				<path class="st6" d="M560.8,369c0.1,0.1,0.3,0.2,0.5,0.1c0-0.1,0.1-0.2,0.1-0.2c0-0.3-0.2-0.6-0.6-0.6
					C560.6,368.5,560.6,368.8,560.8,369z"/>
				<path class="st18" d="M560.7,369.2c-0.2-0.3-0.2-0.7-0.1-1c-0.4,0-0.7,0.4-0.7,0.8c0,0.4,0.3,0.8,0.8,0.8c0.3,0,0.5-0.1,0.6-0.3
					C561.1,369.4,560.9,369.4,560.7,369.2z"/>
			</g>
			<g>
				<path class="st23" d="M559,366.5c0,0.4-0.3,0.8-0.8,0.8c-0.4,0-0.8-0.3-0.8-0.8c0-0.4,0.3-0.8,0.8-0.8
					C558.7,365.7,559,366,559,366.5z"/>
				<path class="st6" d="M558.4,366.5c0.1,0.1,0.3,0.2,0.5,0.1c0-0.1,0.1-0.2,0.1-0.2c0-0.3-0.2-0.6-0.6-0.6
					C558.2,366,558.2,366.3,558.4,366.5z"/>
				<path class="st18" d="M558.2,366.7c-0.2-0.3-0.2-0.7-0.1-1c-0.4,0-0.7,0.4-0.7,0.8c0,0.4,0.3,0.8,0.8,0.8c0.3,0,0.5-0.1,0.6-0.3
					C558.6,367,558.4,366.9,558.2,366.7z"/>
			</g>
			<g>
				<path class="st23" d="M558.3,362.3c0,0.4-0.3,0.8-0.8,0.8c-0.4,0-0.8-0.3-0.8-0.8c0-0.4,0.3-0.8,0.8-0.8
					C558,361.6,558.3,361.9,558.3,362.3z"/>
				<path class="st6" d="M557.7,362.4c0.1,0.1,0.3,0.2,0.5,0.1c0-0.1,0.1-0.2,0.1-0.2c0-0.3-0.2-0.6-0.6-0.6
					C557.5,361.9,557.5,362.2,557.7,362.4z"/>
				<path class="st18" d="M557.5,362.5c-0.2-0.3-0.2-0.7-0.1-1c-0.4,0-0.7,0.4-0.7,0.8c0,0.4,0.3,0.8,0.8,0.8c0.3,0,0.5-0.1,0.6-0.3
					C558,362.8,557.7,362.8,557.5,362.5z"/>
			</g>
			<g>
				<path class="st23" d="M559.4,358.2c0,0.4-0.3,0.8-0.8,0.8c-0.4,0-0.8-0.3-0.8-0.8c0-0.4,0.3-0.8,0.8-0.8
					C559.1,357.4,559.4,357.8,559.4,358.2z"/>
				<path class="st6" d="M558.8,358.2c0.1,0.1,0.3,0.2,0.5,0.1c0-0.1,0.1-0.2,0.1-0.2c0-0.3-0.2-0.6-0.6-0.6
					C558.6,357.7,558.6,358,558.8,358.2z"/>
				<path class="st18" d="M558.6,358.4c-0.2-0.3-0.2-0.7-0.1-1c-0.4,0-0.7,0.4-0.7,0.8c0,0.4,0.3,0.8,0.8,0.8c0.3,0,0.5-0.1,0.6-0.3
					C559.1,358.7,558.8,358.6,558.6,358.4z"/>
			</g>
			<g>
				<circle class="st23" cx="560.8" cy="354.5" r="0.8"/>
				<path class="st6" d="M560.9,354.5c0.1,0.1,0.3,0.2,0.5,0.1c0-0.1,0.1-0.2,0.1-0.2c0-0.3-0.2-0.6-0.6-0.6
					C560.7,354,560.7,354.3,560.9,354.5z"/>
				<path class="st18" d="M560.7,354.7c-0.2-0.3-0.2-0.7-0.1-1c-0.4,0-0.7,0.4-0.7,0.8c0,0.4,0.3,0.8,0.8,0.8c0.3,0,0.5-0.1,0.6-0.3
					C561.2,355,560.9,354.9,560.7,354.7z"/>
			</g>
			<path class="st24" d="M567.2,361.4c-1.1,2.7-3.3,4.3-4.9,3.7c-1.6-0.7-2.1-3.4-1-6c1.1-2.7,3.3-4.3,4.9-3.7
				C567.8,356,568.3,358.8,567.2,361.4z"/>
		</g>
		<polygon class="st19" points="332.7,341.9 522.3,253.4 528,255.1 337.9,343.9 		"/>
		<polygon class="st25" points="528,255.1 528,256.6 339.1,344.4 337.9,343.9 		"/>
		<path class="st6" d="M522.3,253.4"/>
		<polygon class="st26" points="601,299.3 436.3,393.6 431.1,391.8 592.3,300.2 		"/>
		<g>
			<polygon class="st17" points="530.3,438.9 522.4,443.2 569.4,458.6 613.9,432.8 606.3,430.8 			"/>
			<g>
				<g>
					<polygon class="st27" points="530.3,438.9 570.4,451.9 570.4,404.8 530.3,392.1 					"/>
					<path class="st28" d="M606.3,385.4l-35.9,19.4v47.1c0,0,31.8-19.7,35.9-21.1V385.4z"/>
					<polygon class="st29" points="530.4,392.1 570.5,404.8 606.4,385.3 565.9,375.6 					"/>
					<polygon class="st30" points="543.6,396.3 543.6,443.3 552.5,446.2 552.5,399.2 					"/>
				</g>
				<polygon class="st31" points="543.6,396.3 578.6,378.7 587.4,380.8 552.5,399.2 				"/>
			</g>
		</g>
		<g>
			<polygon class="st17" points="466.9,328.1 459,332.3 506,347.8 550.4,322 542.8,320 			"/>
			<g>
				<g>
					<polygon class="st27" points="466.9,328.1 507,341 507,293.9 466.9,281.3 					"/>
					<path class="st28" d="M542.8,274.5L507,294v47.1c0,0,31.8-19.7,35.9-21.1V274.5z"/>
					<polygon class="st29" points="466.9,281.3 507.1,293.9 542.9,274.5 502.5,264.8 					"/>
					<polygon class="st30" points="480.1,285.4 480.1,332.5 489.1,335.4 489.1,288.4 					"/>
				</g>
				<polygon class="st31" points="480.1,285.4 515.2,267.8 524,269.9 489.1,288.4 				"/>
			</g>
		</g>
		<g>
			<polygon class="st17" points="412.7,357.7 404.8,361.9 451.8,377.4 496.2,351.6 488.6,349.6 			"/>
			<g>
				<g>
					<polygon class="st27" points="412.7,357.7 452.8,370.6 452.8,323.5 412.7,310.9 					"/>
					<path class="st28" d="M488.6,304.1l-35.9,19.4v47.1c0,0,31.8-19.7,35.9-21.1V304.1z"/>
					<polygon class="st29" points="412.7,310.9 452.8,323.5 488.7,304.1 448.2,294.4 					"/>
					<polygon class="st30" points="425.9,315 425.9,362.1 434.8,365 434.8,318 					"/>
				</g>
				<polygon class="st31" points="425.9,315 461,297.4 469.8,299.5 434.8,318 				"/>
			</g>
		</g>
		<g>
			<g>
				<path class="st32" d="M284.5,317.8l-21.1,5.9c0,0-13.5,2.9-13.3,21h7c0,0,0.4-11.5,10.3-13.4l14.3-2.2L284.5,317.8z"/>
				<polygon class="st33" points="258.5,367.7 246.1,364.4 246.1,341 258.5,344.4 				"/>
				<polygon class="st34" points="258.5,344.4 259.8,343.7 259.8,365.8 258.5,367.7 				"/>
				<polygon class="st35" points="246.1,341 247.9,340.6 259.8,343.7 258.5,344.4 				"/>
			</g>
			<path class="st20" d="M409.3,456.4l-13.3-3.5c0,0-2.4-1.2-3.1-3.4c-1.8-7.7-3.1-11.6,0.1-19.7c4.8-12.1,15.2-19.4,23.1-16.2
				c8,3.2,10.5,15.6,5.7,27.7C418.8,448.7,414.7,453.9,409.3,456.4"/>
			<path class="st6" d="M440.3,307.7l-49.4,26.8c0,0-13.4,4-14.6,25.7l-8.3,94.1c0,0-1.7,10.7,17.5-0.9l54.8-32.2V307.7z"/>
			<path class="st6" d="M279.9,436c0,0,67.1,32.1,91.9,23"/>
			<path class="st36" d="M370.6,425.4l-2.5,28.9c0,0-1.7,10.7,17.5-0.9l54.8-32.2v-34.7L370.6,425.4z"/>
			<path class="st36" d="M372.1,424.5l-0.3,34.8c-24.7,8.7-91.9-23.4-91.9-23.4c-13.5-5.7-11.8-19.5-11.8-19.5
				c-1-6.4-1.5-13.1-1.7-19.9C266.4,396.6,324.6,427.6,372.1,424.5z"/>
			<path class="st37" d="M370.9,414.7l0,17.4c-33.6,6.2-104.2-28.4-104.2-28.4"/>
			<polygon class="st23" points="343.4,271.2 286.4,301.9 383.7,338.3 440.3,307.6 			"/>
			<g>
				<path class="st33" d="M426.5,321.2l-26.1,14.4c-0.9,0.4-13.8,6.8-15.6,24.3l-5.4,40c-0.1,0.4,0.1,0.8,0.4,1
					c0.2,0.1,0.4,0.2,0.6,0.2c0.2,0,0.4,0,0.5-0.1l45.6-26.1L426.5,321.2L426.5,321.2z"/>
			</g>
			<g>
				<g>
					<g>
						<g>
							<path class="st38" d="M423.6,326l-21.2,11.7l-0.1,0c-0.5,0.2-12.3,5.9-14,21.9l-4.9,36.7l40.1-23V326z"/>
						</g>
					</g>
				</g>
			</g>
			<path class="st6" d="M404.1,341.3c-0.1,0-0.7,0.3-1.6,0.9c-0.8,2.4-1.5,4.9-1.9,7.5c-0.5,3.2-0.8,6.6-0.5,9.8
				c0.2,2.2,0.6,4.6,2.1,6.3c3.1,3.6,9.4,3.4,13.5,1.8c1.6-0.6,3-1.4,4.2-2.4c0.2-1,0.4-2.1,0.8-3.4v-29.7L404.1,341.3L404.1,341.3z
				"/>
			<path class="st38" d="M417.8,373.9c-5.5,1.7-14,2.3-18.2-2.6c-1.9-2.2-2.7-4.9-3.1-7.7c-0.6-4.3-0.3-8.8,0.3-13.1
				c0.5-3.7,1.4-7.4,2.6-10.9c-3.8,2.8-9.8,8.9-11,20l-4.9,36.7l39.9-22.9c0-0.6,0.1-1.4,0.2-2.6
				C421.8,372.2,419.9,373.2,417.8,373.9z"/>
			<path class="st37" d="M370.9,414.7c22.5-13.3,46.9-26.4,69.4-39.7"/>
			<path class="st34" d="M274.1,394.1c0,0-2,6.6,3.8,10.1c0,0,45.7,19,67.8,22.4c0,0,5.9-1.2,3.8-7.5L274.1,394.1z"/>
			<path class="st39" d="M291.9,299.8c-13.4,0.2-17.2,17.8-17.2,17.8s-9.3,36.3-8.4,73.7c0,0,66.2,30.6,95.2,29.9
				c9.3,0.2,10.3-5.2,10.3-5.2c0.4-38.1,5.6-63.6,5.6-63.6c2.9-16.9,13.5-17.8,13.5-17.8S297.4,308.6,291.9,299.8z"/>
			<path class="st38" d="M366.9,409.4c0,0-0.3,6.1-9.6,4.7c-1.6-0.2-63.7-14.4-91-31.8c-1-31.5,8.5-64.7,8.5-64.7s1.9-5.9,6.8-3.5
				c27.9,13.3,82.8,25.8,82.8,25.8s8.6,0.8,7.1,13.1C371.4,353,368,372.3,366.9,409.4z"/>
			<path class="st38" d="M357.8,394.7c-3.8,1.7-7.8,2.2-12,2.3c-9.8,0.2-44-9.4-53.2-13.1c-7.4-3-14.4-7.2-19.1-13.7
				c-2.5-3.5-4.3-7.4-6.1-11.3c-0.1-0.1-0.1-0.3-0.2-0.4c-0.8,7.7-1.2,15.9-1,24c27.3,17.4,89.4,31.5,91,31.8
				c9.3,1.4,9.6-4.7,9.6-4.7c0.2-8.3,0.6-15.7,1-22.2C365.1,390.4,361.7,393,357.8,394.7z"/>
			<path class="st6" d="M293.5,405.9c-0.3,0.7-1,1.1-1.7,0.8l-6.4-2.3c-0.7-0.3-1.1-1-0.8-1.7l0,0c0.3-0.7,1-1.1,1.7-0.8l6.4,2.3
				C293.4,404.4,293.7,405.2,293.5,405.9L293.5,405.9z"/>
			<path class="st6" d="M333.9,419.6c-0.2,0.7-1,1.1-1.7,0.9l-6.5-2.1c-0.7-0.2-1.1-1-0.9-1.7l0,0c0.2-0.7,1-1.1,1.7-0.9l6.5,2.1
				C333.8,418.2,334.1,418.9,333.9,419.6L333.9,419.6z"/>
			<g>
				<path class="st33" d="M268.1,419.3l13.3,5.5c0,0,3.2-9.2-14.2-16.1c0,0-1.2,0.4,0.9,10.3"/>
				<g>
					<path class="st23" d="M276,416.4c0,1.7-1.4,3.2-3.2,3.2c-1.7,0-3.2-1.4-3.2-3.2c0-1.7,1.4-3.2,3.2-3.2
						C274.5,413.3,276,414.7,276,416.4z"/>
					<path class="st6" d="M273.3,416.5c0.6,0.6,1.3,0.7,1.9,0.5c0.1-0.3,0.2-0.6,0.2-1c0-1.3-1-2.3-2.3-2.4
						C272.6,414.5,272.5,415.8,273.3,416.5z"/>
					<path class="st18" d="M272.7,417.3c-1-1.2-1-2.8-0.3-4c-1.6,0.2-2.8,1.5-2.8,3.1c0,1.7,1.4,3.2,3.2,3.2c1.1,0,2-0.5,2.6-1.3
						C274.4,418.5,273.4,418.2,272.7,417.3z"/>
				</g>
				<g>
					<path class="st23" d="M279.4,419.8c0,1.2-1,2.1-2.1,2.1c-1.2,0-2.1-1-2.1-2.1c0-1.2,1-2.1,2.1-2.1
						C278.5,417.6,279.4,418.6,279.4,419.8z"/>
					<path class="st6" d="M277.7,419.9c0.4,0.4,0.9,0.5,1.3,0.3c0.1-0.2,0.1-0.4,0.1-0.7c0-0.9-0.7-1.6-1.6-1.6
						C277.2,418.5,277.1,419.3,277.7,419.9z"/>
					<path class="st18" d="M277.2,420.4c-0.7-0.8-0.7-1.9-0.2-2.7c-1.1,0.1-1.9,1-1.9,2.1c0,1.2,1,2.1,2.1,2.1
						c0.7,0,1.4-0.4,1.7-0.9C278.4,421.1,277.7,421,277.2,420.4z"/>
				</g>
				<path class="st40" d="M270.9,412.7c0,0.9-0.7,1.7-1.7,1.7c-0.9,0-1.7-0.7-1.7-1.7c0-0.9,0.7-1.7,1.7-1.7
					C270.2,411,270.9,411.8,270.9,412.7z"/>
			</g>
			<g>
				<path class="st33" d="M368.6,440.3v9.8l-20.8-4.6C347.8,445.5,348.8,435.3,368.6,440.3z"/>
				<g>
					<path class="st23" d="M357.9,441.5c-1.1,1.5-0.8,3.7,0.8,4.8c1.5,1.1,3.7,0.8,4.8-0.8c1.1-1.5,0.8-3.7-0.8-4.8
						C361.1,439.6,359,439.9,357.9,441.5z"/>
					<path class="st6" d="M360.1,443.2c-0.9,0.1-1.6-0.2-2-0.8c0.1-0.4,0.2-0.7,0.4-1c0.8-1.1,2.4-1.4,3.5-0.6
						C362.1,441.9,361.3,443.1,360.1,443.2z"/>
					<path class="st18" d="M360.2,444.3c1.6-0.4,2.6-1.8,2.8-3.4c1.2,1.2,1.5,3.1,0.5,4.5c-1.1,1.5-3.2,1.9-4.8,0.8
						c-0.9-0.7-1.4-1.7-1.4-2.8C357.9,444.2,359,444.6,360.2,444.3z"/>
				</g>
				<g>
					<path class="st23" d="M352.7,442.2c-0.7,1-0.5,2.5,0.5,3.2c1,0.7,2.5,0.5,3.2-0.5c0.7-1,0.5-2.5-0.5-3.2
						C354.8,440.9,353.4,441.2,352.7,442.2z"/>
					<path class="st6" d="M354.2,443.4c-0.6,0.1-1.1-0.2-1.4-0.6c0-0.2,0.1-0.5,0.3-0.7c0.6-0.8,1.6-1,2.4-0.4
						C355.5,442.5,355,443.3,354.2,443.4z"/>
					<path class="st18" d="M354.3,444.1c1.1-0.3,1.8-1.2,1.9-2.3c0.8,0.8,1,2.1,0.3,3c-0.7,1-2.2,1.3-3.2,0.5c-0.6-0.5-1-1.2-1-1.9
						C352.7,444.1,353.4,444.4,354.3,444.1z"/>
				</g>
				<path class="st40" d="M364.7,441.4c-0.6,0.8-0.4,1.9,0.4,2.5c0.8,0.6,1.9,0.4,2.5-0.4c0.6-0.8,0.4-1.9-0.4-2.5
					C366.4,440.4,365.2,440.5,364.7,441.4z"/>
			</g>
			<g>
				<path class="st31" d="M286.6,423.1c16.1,7.6,42.3,15.5,48.9,17.4v14.7c-12.6-3.3-42.4-15.5-48.9-18.1V423.1 M284.5,419.8v18.6
					c0,0,40.8,17,53,19.4v-18.8C337.5,438.9,302,428.7,284.5,419.8L284.5,419.8z"/>
			</g>
			<g>
				<path class="st18" d="M287.3,425v1.8c0,0,30.3,12.7,47.5,16.6v-1.8C334.7,441.5,298.5,431,287.3,425z"/>
				<path class="st18" d="M287.3,428.1v1.8c0,0,30.8,12.6,47.5,16.6v-1.8C334.7,444.7,298.5,434.1,287.3,428.1z"/>
				<path class="st18" d="M287.3,431.2v1.8c0,0,30.3,12.7,47.5,16.6v-1.8C334.7,447.8,298.5,437.3,287.3,431.2z"/>
				<path class="st18" d="M287.3,434.3v1.8c0,0,31.4,12.6,47.5,16.6v-1.8C334.7,450.9,298.5,440.4,287.3,434.3z"/>
			</g>
			<g>
				<path class="st33" d="M389.1,348.1L368,354c0,0-13.4,2.9-13.3,21h7c0,0,0.4-11.5,10.3-13.4l14.3-2.2L389.1,348.1z"/>
				<polygon class="st33" points="363,398 350.7,394.6 350.7,371.3 363,374.6 				"/>
				<polygon class="st34" points="363,374.6 364.3,373.9 364.3,396 363,398 				"/>
				<polygon class="st35" points="350.7,371.3 352.4,370.8 364.3,373.9 363,374.6 				"/>
			</g>
			<g>
				<path class="st41" d="M370.9,432.1c21.8-14.7,45.2-26.9,68-39.9"/>
				<line class="st41" x1="412.1" y1="390.3" x2="412.1" y2="437.7"/>
			</g>
			<path class="st20" d="M396.5,447.4c0,0-4.8-26.5,15.8-37.4c0,0,19.6-12.9,23.1,13.3L396.5,447.4z"/>
			<path class="st22" d="M431.2,439.8c-4.8,12.1-15.2,19.4-23.1,16.2c-8-3.2-10.5-15.6-5.7-27.7c4.8-12.1,15.2-19.4,23.1-16.2
				C433.5,415.2,436,427.6,431.2,439.8z"/>
			<g>
				<path class="st20" d="M424.3,437.6c-2.5,6.3-7.9,10.1-12.1,8.5c-4.2-1.7-5.5-8.1-3-14.5c2.5-6.3,7.9-10.1,12.1-8.5
					C425.5,424.8,426.8,431.2,424.3,437.6z"/>
				<path class="st23" d="M423.9,436.2c-2.2,5.6-7,9-10.7,7.5c-3.7-1.5-4.9-7.2-2.6-12.8c2.2-5.6,7-9,10.7-7.5
					C424.9,424.9,426.1,430.6,423.9,436.2z"/>
				<path class="st23" d="M423.9,436.2c-2.2,5.6-7,9-10.7,7.5c-3.7-1.5-4.9-7.2-2.6-12.8c2.2-5.6,7-9,10.7-7.5
					C424.9,424.9,426.1,430.6,423.9,436.2z"/>
				<path class="st21" d="M421.5,435c-1.5,3.7-4.6,6-6.9,5.1c-2.3-0.9-2.9-4.7-1.5-8.4c1.5-3.7,4.6-6,6.9-5.1
					C422.3,427.5,423,431.2,421.5,435z"/>
				<g>
					<path class="st23" d="M418,425.1c0,0.4-0.3,0.8-0.8,0.8c-0.4,0-0.8-0.3-0.8-0.8c0-0.4,0.3-0.8,0.8-0.8
						C417.6,424.3,418,424.6,418,425.1z"/>
					<path class="st6" d="M417.3,425.1c0.1,0.1,0.3,0.2,0.5,0.1c0-0.1,0.1-0.2,0.1-0.2c0-0.3-0.2-0.6-0.6-0.6
						C417.1,424.6,417.1,424.9,417.3,425.1z"/>
					<path class="st18" d="M417.2,425.3c-0.2-0.3-0.2-0.7-0.1-1c-0.4,0-0.7,0.4-0.7,0.8c0,0.4,0.3,0.8,0.8,0.8
						c0.3,0,0.5-0.1,0.6-0.3C417.6,425.5,417.3,425.5,417.2,425.3z"/>
				</g>
				<g>
					<path class="st23" d="M421.6,424.8c0,0.4-0.3,0.8-0.8,0.8c-0.4,0-0.8-0.3-0.8-0.8s0.3-0.8,0.8-0.8
						C421.2,424,421.6,424.4,421.6,424.8z"/>
					<path class="st6" d="M420.9,424.8c0.1,0.1,0.3,0.2,0.5,0.1c0-0.1,0.1-0.2,0.1-0.2c0-0.3-0.2-0.6-0.6-0.6
						C420.7,424.3,420.7,424.6,420.9,424.8z"/>
					<path class="st18" d="M420.8,425c-0.2-0.3-0.2-0.7-0.1-1c-0.4,0-0.7,0.4-0.7,0.8c0,0.4,0.3,0.8,0.8,0.8c0.3,0,0.5-0.1,0.6-0.3
						C421.2,425.3,420.9,425.2,420.8,425z"/>
				</g>
				<g>
					<path class="st23" d="M424,427.7c0,0.4-0.3,0.8-0.8,0.8c-0.4,0-0.8-0.3-0.8-0.8c0-0.4,0.3-0.8,0.8-0.8
						C423.7,427,424,427.3,424,427.7z"/>
					<path class="st6" d="M423.4,427.8c0.1,0.1,0.3,0.2,0.5,0.1c0-0.1,0.1-0.2,0.1-0.2c0-0.3-0.2-0.6-0.6-0.6
						C423.2,427.3,423.2,427.6,423.4,427.8z"/>
					<path class="st18" d="M423.2,428c-0.2-0.3-0.2-0.7-0.1-1c-0.4,0-0.7,0.4-0.7,0.8c0,0.4,0.3,0.8,0.8,0.8c0.3,0,0.5-0.1,0.6-0.3
						C423.6,428.2,423.4,428.2,423.2,428z"/>
				</g>
				<g>
					<path class="st23" d="M424.4,432.2c0,0.4-0.3,0.8-0.8,0.8c-0.4,0-0.8-0.3-0.8-0.8c0-0.4,0.3-0.8,0.8-0.8
						C424,431.4,424.4,431.8,424.4,432.2z"/>
					<path class="st6" d="M423.8,432.2c0.1,0.1,0.3,0.2,0.5,0.1c0-0.1,0.1-0.2,0.1-0.2c0-0.3-0.2-0.6-0.6-0.6
						C423.6,431.7,423.5,432.1,423.8,432.2z"/>
					<path class="st18" d="M423.6,432.4c-0.2-0.3-0.2-0.7-0.1-1c-0.4,0-0.7,0.4-0.7,0.8c0,0.4,0.3,0.8,0.8,0.8
						c0.3,0,0.5-0.1,0.6-0.3C424,432.7,423.8,432.6,423.6,432.4z"/>
				</g>
				<g>
					<path class="st23" d="M423.2,435.8c0,0.4-0.3,0.8-0.8,0.8c-0.4,0-0.8-0.3-0.8-0.8c0-0.4,0.3-0.8,0.8-0.8
						C422.9,435.1,423.2,435.4,423.2,435.8z"/>
					<path class="st6" d="M422.6,435.9c0.1,0.1,0.3,0.2,0.5,0.1c0-0.1,0.1-0.2,0.1-0.2c0-0.3-0.2-0.6-0.6-0.6
						C422.4,435.4,422.4,435.7,422.6,435.9z"/>
					<path class="st18" d="M422.4,436c-0.2-0.3-0.2-0.7-0.1-1c-0.4,0-0.7,0.4-0.7,0.8c0,0.4,0.3,0.8,0.8,0.8c0.3,0,0.5-0.1,0.6-0.3
						C422.9,436.3,422.6,436.3,422.4,436z"/>
				</g>
				<g>
					<path class="st23" d="M421.3,439.3c0,0.4-0.3,0.8-0.8,0.8c-0.4,0-0.8-0.3-0.8-0.8c0-0.4,0.3-0.8,0.8-0.8
						C421,438.5,421.3,438.9,421.3,439.3z"/>
					<path class="st6" d="M420.7,439.3c0.1,0.1,0.3,0.2,0.5,0.1c0-0.1,0.1-0.2,0.1-0.2c0-0.3-0.2-0.6-0.6-0.6
						C420.5,438.8,420.5,439.1,420.7,439.3z"/>
					<path class="st18" d="M420.5,439.5c-0.2-0.3-0.2-0.7-0.1-1c-0.4,0-0.7,0.4-0.7,0.8c0,0.4,0.3,0.8,0.8,0.8
						c0.3,0,0.5-0.1,0.6-0.3C421,439.8,420.7,439.7,420.5,439.5z"/>
				</g>
				<g>
					<path class="st23" d="M418,441.8c0,0.4-0.3,0.8-0.8,0.8c-0.4,0-0.8-0.3-0.8-0.8c0-0.4,0.3-0.8,0.8-0.8
						C417.6,441,418,441.3,418,441.8z"/>
					<path class="st6" d="M417.3,441.8c0.1,0.1,0.3,0.2,0.5,0.1c0-0.1,0.1-0.2,0.1-0.2c0-0.3-0.2-0.6-0.6-0.6
						C417.1,441.3,417.1,441.6,417.3,441.8z"/>
					<path class="st18" d="M417.2,442c-0.2-0.3-0.2-0.7-0.1-1c-0.4,0-0.7,0.4-0.7,0.8c0,0.4,0.3,0.8,0.8,0.8c0.3,0,0.5-0.1,0.6-0.3
						C417.6,442.3,417.3,442.2,417.2,442z"/>
				</g>
				<g>
					<path class="st23" d="M414.5,442c0,0.4-0.3,0.8-0.8,0.8c-0.4,0-0.8-0.3-0.8-0.8c0-0.4,0.3-0.8,0.8-0.8
						C414.2,441.3,414.5,441.6,414.5,442z"/>
					<path class="st6" d="M413.9,442.1c0.1,0.1,0.3,0.2,0.5,0.1c0-0.1,0.1-0.2,0.1-0.2c0-0.3-0.2-0.6-0.6-0.6
						C413.7,441.6,413.7,441.9,413.9,442.1z"/>
					<path class="st18" d="M413.7,442.2c-0.2-0.3-0.2-0.7-0.1-1c-0.4,0-0.7,0.4-0.7,0.8c0,0.4,0.3,0.8,0.8,0.8
						c0.3,0,0.5-0.1,0.6-0.3C414.2,442.5,413.9,442.4,413.7,442.2z"/>
				</g>
				<g>
					<path class="st23" d="M412.1,439.5c0,0.4-0.3,0.8-0.8,0.8c-0.4,0-0.8-0.3-0.8-0.8c0-0.4,0.3-0.8,0.8-0.8
						C411.7,438.8,412.1,439.1,412.1,439.5z"/>
					<path class="st6" d="M411.4,439.6c0.1,0.1,0.3,0.2,0.5,0.1c0-0.1,0.1-0.2,0.1-0.2c0-0.3-0.2-0.6-0.6-0.6
						C411.2,439.1,411.2,439.4,411.4,439.6z"/>
					<path class="st18" d="M411.3,439.8c-0.2-0.3-0.2-0.7-0.1-1c-0.4,0-0.7,0.4-0.7,0.8c0,0.4,0.3,0.8,0.8,0.8
						c0.3,0,0.5-0.1,0.6-0.3C411.7,440,411.4,440,411.3,439.8z"/>
				</g>
				<g>
					<path class="st23" d="M411.4,435.4c0,0.4-0.3,0.8-0.8,0.8c-0.4,0-0.8-0.3-0.8-0.8s0.3-0.8,0.8-0.8
						C411.1,434.6,411.4,435,411.4,435.4z"/>
					<path class="st6" d="M410.8,435.4c0.1,0.1,0.3,0.2,0.5,0.1c0-0.1,0.1-0.2,0.1-0.2c0-0.3-0.2-0.6-0.6-0.6
						C410.6,434.9,410.6,435.2,410.8,435.4z"/>
					<path class="st18" d="M410.6,435.6c-0.2-0.3-0.2-0.7-0.1-1c-0.4,0-0.7,0.4-0.7,0.8c0,0.4,0.3,0.8,0.8,0.8
						c0.3,0,0.5-0.1,0.6-0.3C411,435.9,410.8,435.8,410.6,435.6z"/>
				</g>
				<g>
					<path class="st23" d="M412.5,431.3c0,0.4-0.3,0.8-0.8,0.8c-0.4,0-0.8-0.3-0.8-0.8c0-0.4,0.3-0.8,0.8-0.8
						C412.2,430.5,412.5,430.9,412.5,431.3z"/>
					<path class="st6" d="M411.9,431.3c0.1,0.1,0.3,0.2,0.5,0.1c0-0.1,0.1-0.2,0.1-0.2c0-0.3-0.2-0.6-0.6-0.6
						C411.7,430.8,411.7,431.1,411.9,431.3z"/>
					<path class="st18" d="M411.7,431.5c-0.2-0.3-0.2-0.7-0.1-1c-0.4,0-0.7,0.4-0.7,0.8c0,0.4,0.3,0.8,0.8,0.8
						c0.3,0,0.5-0.1,0.6-0.3C412.1,431.8,411.9,431.7,411.7,431.5z"/>
				</g>
				<g>
					<path class="st23" d="M414.6,427.6c0,0.4-0.3,0.8-0.8,0.8c-0.4,0-0.8-0.3-0.8-0.8c0-0.4,0.3-0.8,0.8-0.8
						C414.3,426.8,414.6,427.2,414.6,427.6z"/>
					<path class="st6" d="M414,427.6c0.1,0.1,0.3,0.2,0.5,0.1c0-0.1,0.1-0.2,0.1-0.2c0-0.3-0.2-0.6-0.6-0.6
						C413.8,427.1,413.8,427.4,414,427.6z"/>
					<path class="st18" d="M413.8,427.8c-0.2-0.3-0.2-0.7-0.1-1c-0.4,0-0.7,0.4-0.7,0.8c0,0.4,0.3,0.8,0.8,0.8
						c0.3,0,0.5-0.1,0.6-0.3C414.2,428.1,414,428,413.8,427.8z"/>
				</g>
				<path class="st24" d="M420.3,434.5c-1.1,2.7-3.3,4.3-4.9,3.7c-1.6-0.7-2.1-3.4-1-6c1.1-2.7,3.3-4.3,4.9-3.7
					C420.9,429.1,421.4,431.8,420.3,434.5z"/>
			</g>
			<g>
				<path class="st38" d="M281.6,314.1c-0.3-0.1-0.5-0.2-0.8-0.3l51,94.5c1.6,0.5,3.1,0.9,4.6,1.3L285.7,316
					C284.3,315.4,283,314.8,281.6,314.1z"/>
				<path class="st6" d="M281.6,314.1c-0.3-0.1-0.5-0.2-0.8-0.3l51,94.5c1.6,0.5,3.1,0.9,4.6,1.3L285.7,316
					C284.3,315.4,283,314.8,281.6,314.1z"/>
				<path class="st38" d="M290,317.8l50.5,92.8c1,0.3,2,0.5,2.9,0.7l-50.3-92.2C292,318.7,291,318.2,290,317.8z"/>
				<path class="st6" d="M290,317.8l50.5,92.8c1,0.3,2,0.5,2.9,0.7l-50.3-92.2C292,318.7,291,318.2,290,317.8z"/>
				<path class="st38" d="M321.4,328.8l26.4,83.5c1,0.2,2,0.4,2.9,0.6l-26.2-83.1C323.4,329.5,322.4,329.1,321.4,328.8z"/>
			</g>
		</g>
	</g>
</g>
</svg>
